<?xml version="1.0" encoding="UTF-8"?>
<svg xmlns="http://www.w3.org/2000/svg" width="69.74" height="69.74" viewBox="0 0 69.74 69.74">
  <defs>
    <style>
      .cls-1 {
        fill: #fff;
      }

      .cls-2 {
        fill: #d84338;
      }
    </style>
  </defs>
  <g id="facebook">
    <g>
      <rect class="cls-2" width="69.74" height="69.74" rx="17.43" ry="17.43"/>
      <path class="cls-1" d="M48.24,13.08H21.5c-4.65,0-8.42,3.78-8.42,8.42v26.74c0,4.65,3.78,8.42,8.42,8.42h26.74c4.65,0,8.42-3.78,8.42-8.42V21.5c0-4.65-3.78-8.42-8.42-8.42Zm2.42,5.03h.96v7.38l-7.36,.03-.03-7.39,6.42-.02Zm-22.01,12.3c1.4-1.93,3.66-3.2,6.22-3.2s4.82,1.27,6.22,3.2c.91,1.26,1.45,2.8,1.45,4.47,0,4.23-3.44,7.67-7.67,7.67s-7.67-3.44-7.67-7.67c0-1.67,.54-3.21,1.45-4.47Zm23.77,17.84c0,2.3-1.88,4.18-4.18,4.18H21.5c-2.3,0-4.18-1.87-4.18-4.18V30.4h6.51c-.56,1.38-.88,2.89-.88,4.47,0,6.57,5.35,11.92,11.92,11.92s11.92-5.35,11.92-11.92c0-1.58-.32-3.09-.88-4.47h6.51v17.84Z"/>
    </g>
  </g>
  <g id="Layer_8" data-name="Layer 8"/>
</svg>