<?xml version="1.0" encoding="UTF-8"?>
<svg id="twitter" xmlns="http://www.w3.org/2000/svg" width="93.61" height="74.88" viewBox="0 0 93.61 74.88">
  <defs>
    <style>
      .cls-1 {
        fill: #d84338;
      }
    </style>
  </defs>
  <path class="cls-1" d="M91.03,1.38c-3.71,2.17-7.82,3.74-12.2,4.59-3.5-3.67-8.49-5.97-14.02-5.97-10.6,0-19.2,8.46-19.2,18.91,0,1.48,.17,2.92,.49,4.31C30.14,22.42,15.99,14.9,6.52,3.46c-1.65,2.79-2.6,6.04-2.6,9.51,0,6.56,3.4,12.34,8.55,15.73-3.14-.1-6.11-.95-8.7-2.36v.24c0,9.16,6.62,16.8,15.41,18.54-1.61,.43-3.31,.66-5.06,.66-1.24,0-2.44-.12-3.61-.34,2.45,7.51,9.54,12.98,17.94,13.13-6.58,5.07-14.85,8.09-23.85,8.09-1.55,0-3.08-.09-4.58-.26,8.5,5.36,18.6,8.49,29.44,8.49,35.33,0,54.64-28.8,54.64-53.78,0-.82-.01-1.64-.05-2.45,3.75-2.66,7.01-5.99,9.58-9.79-3.44,1.51-7.14,2.52-11.03,2.98,3.97-2.34,7.01-6.04,8.45-10.46Z"/>
</svg>