<?xml version="1.0" encoding="UTF-8"?>
<svg id="youtube" xmlns="http://www.w3.org/2000/svg" width="91.89" height="67.39" viewBox="0 0 91.89 67.39">
  <defs>
    <style>
      .cls-1 {
        fill: #d84338;
      }
    </style>
  </defs>
  <g id="Lozenge">
    <path class="cls-1" d="M90.97,14.53s-.9-6.61-3.65-9.51c-3.49-3.81-7.41-3.84-9.2-4.05C65.25,0,45.97,0,45.97,0h-.04S26.63,0,13.78,.97c-1.79,.22-5.71,.24-9.21,4.05C1.82,7.93,.92,14.53,.92,14.53c0,0-.92,7.75-.92,15.51v7.27c0,7.76,.92,15.51,.92,15.51,0,0,.9,6.6,3.65,9.51,3.5,3.82,8.09,3.69,10.13,4.09,7.35,.74,31.24,.97,31.24,.97,0,0,19.31-.04,32.17-1,1.79-.22,5.71-.24,9.2-4.06,2.75-2.91,3.65-9.51,3.65-9.51,0,0,.92-7.75,.92-15.51v-7.27c0-7.75-.92-15.51-.92-15.51Zm-54.51,31.59V19.2l24.82,13.51-24.82,13.41Z"/>
  </g>
</svg>